<svg xmlns="http://www.w3.org/2000/svg" width="25" height="25" viewBox="0 0 25 25" fill="none">
  <g clip-path="url(#clip0_779_680)">
    <path d="M24.7715 23.6582L17.1804 16.0207C18.5953 14.3261 19.448 12.1461 19.448 9.76559C19.448 4.37223 15.0757 -3.05176e-05 9.68237 -3.05176e-05C4.28901 -3.05176e-05 -0.083252 4.37223 -0.083252 9.76559C-0.083252 15.159 4.28901 19.5312 9.68237 19.5312C12.1328 19.5312 14.371 18.6265 16.0859 17.1351L23.6664 24.7632C23.9714 25.0683 24.4664 25.0683 24.7715 24.7632C25.0761 24.4582 25.0761 23.9636 24.7715 23.6582H24.7715ZM9.68237 17.9816C5.14487 17.9816 1.46636 14.3031 1.46636 9.76559C1.46636 5.22809 5.14487 1.54958 9.68237 1.54958C14.2199 1.54958 17.8984 5.22809 17.8984 9.76559C17.8984 14.3031 14.2199 17.9816 9.68237 17.9816Z" fill="#BBBBBB"/>
  </g>
  <defs>
    <clipPath id="clip0_779_680">
      <rect width="25" height="25" fill="white"/>
    </clipPath>
  </defs>
</svg>