<svg xmlns="http://www.w3.org/2000/svg" width="24" height="24" viewBox="0 0 24 24" fill="none">
  <g clip-path="url(#clip0_485_624)">
    <path d="M11.9908 4.99997V2.70997C11.9888 2.57439 12.0432 2.44405 12.141 2.34997L12.3412 2.14997C12.4352 2.05532 12.5631 2.00208 12.6965 2.00208C12.83 2.00208 12.9579 2.05532 13.0519 2.14997L16.5956 5.67997C16.7876 5.87779 16.7876 6.19216 16.5956 6.38997L13.0519 9.91997C12.9579 10.0146 12.83 10.0679 12.6965 10.0679C12.5631 10.0679 12.4352 10.0146 12.3412 9.91997L12.141 9.71997C12.0432 9.6259 11.9888 9.49556 11.9908 9.35997V6.99997C8.73578 7.00955 6.08076 9.60751 6.00389 12.8582C5.92701 16.109 8.45626 18.8293 11.7072 18.9924C14.9581 19.1555 17.7475 16.702 17.9971 13.46C18.018 13.1996 18.2361 12.9991 18.4976 13H19.4987C19.6386 13.0014 19.7721 13.0591 19.869 13.16C19.9601 13.2611 20.0069 13.3942 19.9992 13.53C19.7109 17.8675 16.008 21.1813 11.6604 20.9924C7.31285 20.8035 3.91195 17.1811 4.00174 12.8349C4.09153 8.4887 7.63916 5.00953 11.9908 4.99997Z" fill="#FF4A4A"/>
  </g>
  <defs>
    <clipPath id="clip0_485_624">
      <rect width="24" height="24" fill="white"/>
    </clipPath>
  </defs>
</svg>