<svg width="91" height="39" viewBox="0 0 246 109" fill="none" xmlns="http://www.w3.org/2000/svg">
<g clip-path="url(#clip0_885_1022)">
<path d="M124.4 83C123.667 80.6 122.833 78.1333 121.9 75.6C121.033 73.0667 120.167 70.5333 119.3 68H92.3C91.4333 70.5333 90.5333 73.0667 89.6 75.6C88.7333 78.1333 87.9333 80.6 87.2 83H71C73.6 75.5333 76.0667 68.6333 78.4 62.3C80.7333 55.9667 83 50 85.2 44.4C87.4667 38.8 89.6667 33.5 91.8 28.5C94 23.4333 96.2667 18.5 98.6 13.7H113.5C115.767 18.5 118 23.4333 120.2 28.5C122.4 33.5 124.6 38.8 126.8 44.4C129.067 50 131.367 55.9667 133.7 62.3C136.033 68.6333 138.5 75.5333 141.1 83H124.4ZM105.7 29.4C105.367 30.4 104.867 31.7667 104.2 33.5C103.533 35.2333 102.767 37.2333 101.9 39.5C101.033 41.7667 100.067 44.2667 99 47C98 49.7333 96.9667 52.6 95.9 55.6H115.6C114.533 52.6 113.5 49.7333 112.5 47C111.5 44.2667 110.533 41.7667 109.6 39.5C108.733 37.2333 107.967 35.2333 107.3 33.5C106.633 31.7667 106.1 30.4 105.7 29.4ZM150.07 13.7H165.67V83H150.07V13.7ZM233.111 13.7V27H212.211V83H196.611V27H175.711V13.7H233.111Z" fill="#404146"/>
<rect x="39.4097" y="12" width="14" height="75.8057" rx="7" transform="rotate(22.01 39.4097 12)" fill="#696CEA"/>
<rect x="67.8511" y="11" width="14" height="76.9938" rx="7" transform="rotate(22.0071 67.8511 11)" fill="#696CEA"/>
</g>
<defs>
<clipPath id="clip0_885_1022">
<rect width="246" height="109" fill="white"/>
</clipPath>
</defs>
</svg>