<svg width="91" height="39" viewBox="0 0 91 39" fill="none" xmlns="http://www.w3.org/2000/svg">
<g clip-path="url(#clip0_202_1034)">
<path d="M32.78 31L42.635 6.25H46.28L56.15 31H51.92L49.49 24.55H39.44L36.995 31H32.78ZM40.775 21.1H48.155L44.45 11.53L40.775 21.1ZM60.5466 31V6.25H64.4766V31H60.5466ZM74.3682 31V9.745H67.6332V6.25H85.0332V9.745H78.2832V31H74.3682Z" fill="#404146"/>
<path d="M22.7272 30.3104C21.3161 31.0644 19.8911 31.4744 18.4523 31.5402C17.0176 31.5925 15.7127 31.3147 14.5375 30.7069C13.3623 30.099 12.4472 29.182 11.7921 27.9561C11.104 26.6684 10.8483 25.3198 11.0248 23.9102C11.1966 22.4918 11.7506 21.2264 12.6868 20.1139C11.4662 20.1425 10.3469 19.8619 9.32878 19.2721C8.31067 18.6824 7.52826 17.8759 6.98157 16.8528C6.4066 15.7768 6.19277 14.6552 6.34008 13.488C6.4874 12.3209 6.92741 11.224 7.66013 10.1976C8.40166 9.16641 9.38982 8.32092 10.6246 7.66112C11.4537 7.21811 12.3358 6.91682 13.2709 6.75726C14.2014 6.58888 15.1161 6.58198 16.015 6.73656C16.9093 6.88232 17.7298 7.19785 18.4767 7.68314C19.2235 8.16843 19.8302 8.84766 20.2968 9.72082C20.8624 10.7792 21.0962 11.8958 20.9983 13.0706C20.9092 14.2406 20.5201 15.3159 19.8308 16.2965C21.2984 16.1359 22.665 16.3807 23.9308 17.0309C25.2008 17.6675 26.1797 18.6297 26.8678 19.9174C27.5182 21.1345 27.7695 22.4005 27.6217 23.7153C27.4739 25.0301 26.9796 26.2694 26.1388 27.433C25.2932 28.5878 24.156 29.5469 22.7272 30.3104ZM21.1154 27.294C21.8651 26.8934 22.4374 26.3835 22.8322 25.7644C23.2222 25.1365 23.4252 24.4554 23.4411 23.7213C23.457 22.9871 23.2788 22.2717 22.9065 21.5749C22.5153 20.8429 22.0081 20.2862 21.3849 19.905C20.7569 19.5149 20.0759 19.3119 19.3417 19.296C18.6029 19.2713 17.8675 19.4545 17.1354 19.8457C16.4298 20.2227 15.8752 20.7231 15.4716 21.347C15.0768 21.9661 14.8626 22.6475 14.8291 23.391C14.7997 24.1211 14.9805 24.8521 15.3717 25.5841C15.7487 26.2897 16.2468 26.8399 16.866 27.2347C17.4851 27.6295 18.1641 27.8393 18.9029 27.864C19.6459 27.8752 20.3834 27.6852 21.1154 27.294ZM15.566 16.9087C16.2099 16.5646 16.7033 16.1195 17.0464 15.5734C17.3936 15.0137 17.5764 14.4115 17.5947 13.7668C17.6219 13.1173 17.4681 12.4795 17.1335 11.8533C16.7942 11.2183 16.347 10.7316 15.792 10.3932C15.2324 10.046 14.6234 9.86119 13.9651 9.83877C13.3157 9.81164 12.6735 9.96773 12.0385 10.3071C11.4122 10.6417 10.9255 11.0888 10.5783 11.6485C10.24 12.2035 10.0595 12.8101 10.0371 13.4684C10.01 14.1178 10.1661 14.76 10.5054 15.395C10.84 16.0212 11.2804 16.5059 11.8266 16.849C12.3815 17.1874 12.9882 17.3678 13.6464 17.3902C14.2999 17.4038 14.9398 17.2433 15.566 16.9087Z" fill="#696CEA"/>
</g>
<defs>
<clipPath id="clip0_202_1034">
<rect width="91" height="39" fill="white"/>
</clipPath>
</defs>
</svg>
