<svg xmlns="http://www.w3.org/2000/svg" width="16" height="18" viewBox="0 0 16 18" fill="none">
  <path d="M12.8027 16.4281L12.8027 16.4281C14.1076 15.5906 15.048 14.3446 15.048 12.8546V12.5553C15.048 11.9667 14.8161 11.4019 14.403 10.9854C13.9899 10.5688 13.4293 10.3346 12.8446 10.3346H2.75339C2.1687 10.3346 1.60816 10.5688 1.19504 10.9854C0.781958 11.4019 0.550077 11.9667 0.550077 12.5553V12.8546C0.550077 14.3446 1.49039 15.5906 2.79531 16.4281C4.10895 17.2714 5.88028 17.7691 7.79902 17.7691C9.71778 17.7691 11.4885 17.2714 12.8027 16.4281ZM12.0294 15.2067L12.0294 15.2067C10.9799 15.8802 9.48639 16.3205 7.79902 16.3205C6.11165 16.3205 4.61815 15.8802 3.56863 15.2067L3.56854 15.2066C2.51037 14.5288 1.98869 13.6787 1.98869 12.8546V12.5553C1.98869 12.3502 2.06951 12.1537 2.21304 12.009C2.35653 11.8643 2.55092 11.7832 2.75339 11.7832H12.8446C13.0471 11.7832 13.2415 11.8643 13.385 12.009C13.5285 12.1537 13.6094 12.3502 13.6094 12.5553V12.8546C13.6094 13.6792 13.0872 14.5282 12.0294 15.2067ZM10.8265 8.12434C11.6292 7.31489 12.0799 6.21725 12.0799 5.07295C12.0799 3.92866 11.6292 2.83102 10.8265 2.02156C10.0237 1.21207 8.93473 0.757108 7.79902 0.757108C6.66331 0.757108 5.57432 1.21207 4.77158 2.02156C3.96887 2.83102 3.51809 3.92866 3.51809 5.07295C3.51809 6.21725 3.96887 7.31489 4.77158 8.12434C5.57432 8.93384 6.66331 9.3888 7.79902 9.3888C8.93473 9.3888 10.0237 8.93384 10.8265 8.12434ZM9.80847 3.04513C10.3416 3.58276 10.6413 4.31217 10.6413 5.07295C10.6413 5.83373 10.3416 6.56314 9.80847 7.10078C9.27535 7.63838 8.55251 7.94021 7.79902 7.94021C7.04553 7.94021 6.32269 7.63838 5.78957 7.10078C5.25642 6.56314 4.95671 5.83373 4.95671 5.07295C4.95671 4.31217 5.25642 3.58276 5.78957 3.04513C6.32269 2.50753 7.04553 2.2057 7.79902 2.2057C8.55251 2.2057 9.27535 2.50753 9.80847 3.04513Z" fill="#696CEA" stroke="#696CEA" stroke-width="0.251408"/>
</svg>