<svg xmlns="http://www.w3.org/2000/svg" width="18" height="17" viewBox="0 0 18 17" fill="none">
  <path d="M15.0844 1.67606H13.4083V0.838028C13.4083 0.615769 13.32 0.402613 13.1629 0.245453C13.0057 0.088292 12.7925 0 12.5703 0C12.348 0 12.1349 0.088292 11.9777 0.245453C11.8205 0.402613 11.7323 0.615769 11.7323 0.838028V1.67606H6.70409V0.838028C6.70409 0.615769 6.6158 0.402613 6.45863 0.245453C6.30147 0.088292 6.08832 0 5.86606 0C5.6438 0 5.43064 0.088292 5.27348 0.245453C5.11632 0.402613 5.02803 0.615769 5.02803 0.838028V1.67606H3.35197C2.6852 1.67606 2.04573 1.94093 1.57425 2.41241C1.10277 2.8839 0.837891 3.52336 0.837891 4.19014V14.2465C0.837891 14.9133 1.10277 15.5527 1.57425 16.0242C2.04573 16.4957 2.6852 16.7606 3.35197 16.7606H15.0844C15.7511 16.7606 16.3906 16.4957 16.8621 16.0242C17.3336 15.5527 17.5985 14.9133 17.5985 14.2465V4.19014C17.5985 3.52336 17.3336 2.8839 16.8621 2.41241C16.3906 1.94093 15.7511 1.67606 15.0844 1.67606ZM15.9224 14.2465C15.9224 14.4687 15.8341 14.6819 15.6769 14.8391C15.5198 14.9962 15.3066 15.0845 15.0844 15.0845H3.35197C3.12972 15.0845 2.91656 14.9962 2.7594 14.8391C2.60224 14.6819 2.51395 14.4687 2.51395 14.2465V8.38028H15.9224V14.2465ZM15.9224 6.70423H2.51395V4.19014C2.51395 3.96788 2.60224 3.75473 2.7594 3.59757C2.91656 3.4404 3.12972 3.35211 3.35197 3.35211H5.02803V4.19014C5.02803 4.4124 5.11632 4.62556 5.27348 4.78272C5.43064 4.93988 5.6438 5.02817 5.86606 5.02817C6.08832 5.02817 6.30147 4.93988 6.45863 4.78272C6.6158 4.62556 6.70409 4.4124 6.70409 4.19014V3.35211H11.7323V4.19014C11.7323 4.4124 11.8205 4.62556 11.9777 4.78272C12.1349 4.93988 12.348 5.02817 12.5703 5.02817C12.7925 5.02817 13.0057 4.93988 13.1629 4.78272C13.32 4.62556 13.4083 4.4124 13.4083 4.19014V3.35211H15.0844C15.3066 3.35211 15.5198 3.4404 15.6769 3.59757C15.8341 3.75473 15.9224 3.96788 15.9224 4.19014V6.70423Z" fill="#696CEA"/>
</svg>