<svg xmlns="http://www.w3.org/2000/svg" width="18" height="19" viewBox="0 0 18 19" fill="none">
  <path d="M0.837891 9.29859C0.837891 10.3412 1.04324 11.3736 1.44223 12.3368C1.84121 13.3 2.42601 14.1752 3.16323 14.9125C3.90046 15.6497 4.77567 16.2345 5.7389 16.6335C6.70213 17.0325 7.73451 17.2378 8.7771 17.2378C9.8197 17.2378 10.8521 17.0325 11.8153 16.6335C12.7785 16.2345 13.6538 15.6497 14.391 14.9125C15.1282 14.1752 15.713 13.3 16.112 12.3368C16.511 11.3736 16.7163 10.3412 16.7163 9.29859C16.7163 7.19298 15.8799 5.17361 14.391 3.68472C12.9021 2.19583 10.8827 1.35937 8.7771 1.35938C6.67149 1.35937 4.65212 2.19583 3.16323 3.68472C1.67434 5.17361 0.837891 7.19298 0.837891 9.29859Z" stroke="#696CEA" stroke-width="1.67606" stroke-linecap="round" stroke-linejoin="round"/>
  <path d="M8.77734 4.88794V9.29861L11.4237 11.945" stroke="#696CEA" stroke-width="1.67606" stroke-linecap="round" stroke-linejoin="round"/>
</svg>