<svg xmlns="http://www.w3.org/2000/svg" width="24" height="24" viewBox="0 0 24 24" fill="none">
  <g clip-path="url(#clip0_485_620)">
    <path d="M22.905 19.63L12.8126 2.37C12.6758 2.14121 12.4291 2.00081 12.1625 2H11.8624C11.5958 2.00081 11.3491 2.14121 11.2123 2.37L1.09986 19.63C0.969968 19.8667 0.969968 20.1533 1.09986 20.39L1.23989 20.62C1.36952 20.8573 1.61967 21.0035 1.89005 21H22.1148C22.3852 21.0035 22.6354 20.8573 22.765 20.62L22.905 20.39C23.0349 20.1533 23.0349 19.8667 22.905 19.63ZM13.0027 16.5C13.0027 16.7761 12.7788 17 12.5026 17H11.5023C11.2261 17 11.0022 16.7761 11.0022 16.5V15.5C11.0022 15.2239 11.2261 15 11.5023 15H12.5026C12.7788 15 13.0027 15.2239 13.0027 15.5V16.5ZM12.7826 12.78C12.7674 12.9062 12.6598 13.0009 12.5326 13H11.4723C11.3451 13.0009 11.2375 12.9062 11.2223 12.78L10.8222 9.56C10.8049 9.41735 10.8499 9.27417 10.9456 9.16698C11.0413 9.05979 11.1786 8.99896 11.3223 9H12.6826C12.8263 8.99896 12.9636 9.05979 13.0593 9.16698C13.155 9.27417 13.2 9.41735 13.1827 9.56L12.7826 12.78Z" fill="#FFBC2A"/>
  </g>
  <defs>
    <clipPath id="clip0_485_620">
      <rect width="24" height="24" fill="white"/>
    </clipPath>
  </defs>
</svg>